<svg alt="Mixcloud Help Center Help Center home page" width="571" height="67" viewBox="0 0 571 67" xmlns="http://www.w3.org/2000/svg"><path d="M570.239 33.365c0-27.931-17.506-32.443-34.196-32.443h-22.669V65.9h22.669c16.69 0 34.196-4.512 34.196-32.535zm-11.788 0c0 20.839-10.882 22.222-22.408 22.222h-5.349l-.347.011c-2.231-.024-3.404.331-4.504.978l-2.477 1.578-2.066-2.067 1.448-.826.002-.003c.916-.624 1.657-1.541 2.137-2.833.23-.771.361-1.683.362-2.77l.005.001V16.912a10.289 10.289 0 0 0-.19-1.787c-.461-1.574-1.281-2.639-2.314-3.343-.002-.001-.001-.002-.002-.003l-1.448-.826 2.066-2.067 2.477 1.578c.481.283 1.05.506 1.716.67.23.04.816.076 1.071.101h7.413c11.526 0 22.408 1.383 22.408 22.13zm-56.099 8.395V.922h-11.88v36.413c0 12.26-2.49 19.174-16.046 19.174-13.555 0-16.045-6.914-16.045-19.174V.922h-11.88V41.76c0 16.222 9.209 25.062 27.925 25.062 18.625 0 27.926-8.84 27.926-25.062zm-65.136-8.395C437.216 14.463 425.15 0 405.233 0c-20.01 0-32.075 14.463-32.075 33.365 0 18.995 12.065 33.457 32.075 33.457 19.917 0 31.983-14.462 31.983-33.457zm-11.88 0c0 13.739-6.64 23.144-20.103 23.144-13.463 0-20.194-9.405-20.194-23.144 0-13.646 6.731-23.052 20.194-23.052s20.103 9.406 20.103 23.052zM318.147 66.82l47.708-8.344V47.119l-46.245 7.999-1.307-1.427c1.385-.423 4.706-1.697 4.706-4.221.004-.071.019-48.551.019-48.551h-11.88v59.086c0 4.42 2.579 6.907 6.999 6.815zm-68.619-33.455c0-14.292 7.56-23.052 20.466-23.052 10.323 0 17.515 5.533 18.988 15.676h11.893C298.938 9.945 287.416 0 269.808 0c-20.004 0-32.161 14.463-32.161 33.365 0 18.995 12.157 33.457 32.161 33.457 17.608 0 29.13-9.945 31.067-26.08h-11.893c-1.473 10.143-8.665 15.767-18.988 15.767-12.906 0-20.466-8.76-20.466-23.144zm-51.354 9.996l30.876 22.217V51.937l-26.176-18.526 26.176-18.525V1.245l-30.876 22.308h-3.319L164.07 1.245v13.643l26.084 18.523-26.084 18.523v13.644l30.785-22.217h3.319zM88.798 39.326h65.15v-11.83h-65.15v11.83zM64.344 65.9h11.88V.922H52.726L39.634 62.87h-3.043L23.498.922H0V65.9h11.88V11.697L9.761 3.952h3.741L27.24 65.9h21.836L62.722 3.952h3.832l-2.21 7.745V65.9z" fill-rule="evenodd"/></svg>